<?xml version="1.0" encoding="utf-8"?>
<!-- Generator: Adobe Illustrator 24.1.3, SVG Export Plug-In . SVG Version: 6.00 Build 0)  -->
<svg version="1.1" id="レイヤー_1" xmlns="http://www.w3.org/2000/svg" xmlns:xlink="http://www.w3.org/1999/xlink" x="0px"
	 y="0px" viewBox="0 0 80 79.7" style="enable-background:new 0 0 80 79.7;" xml:space="preserve">
<style type="text/css">
	.st0{fill:#FFFFFF;}
</style>
<path class="st0" d="M56.7,79.7H23.3C10.4,79.7,0,69.4,0,56.5V23.2C0,10.3,10.4,0,23.3,0h33.5C69.5,0,80,10.3,80,23.2v33.4
	C79.8,69.4,69.5,79.7,56.7,79.7z M72.6,23.2c0-8.7-7.2-15.8-15.9-15.8H23.3c-8.9-0.2-15.9,7-15.9,15.8v33.4
	c0,8.7,7.2,15.8,15.9,15.8h33.5c8.7,0,15.9-7.1,15.9-15.8L72.6,23.2L72.6,23.2z M61.4,23.5c-2.7,0-5-2.2-5-4.9s2.3-4.9,5-4.9
	c2.7,0,5,2.2,5,4.9C66.3,21.4,64.1,23.5,61.4,23.5z M39.9,60.2c-11.3,0-20.4-9.2-20.4-20.4s9.2-20.4,20.4-20.4s20.4,9.2,20.4,20.4
	C60.5,51.1,51.2,60.2,39.9,60.2z M39.9,26.6c-7.4,0-13.4,5.9-13.4,13.3c0,7.2,6,13.3,13.4,13.3s13.4-5.9,13.4-13.3
	C53.3,32.6,47.3,26.6,39.9,26.6z"/>
</svg>
